<svg xmlns="http://www.w3.org/2000/svg" viewBox="0 0 127.71 86.76"><path d="M51.31 85.45c-4.91 2.76-11.13 1.02-13.89-3.89L1.31 16.75C-1.45 11.83.29 5.61 5.21 2.85c4.92-2.77 11.14-1.02 13.9 3.9l36.2 64.7c2.69 4.98.92 11.2-4 14" style="fill:#212121"/><path d="m123.01 1.95-.7-.5c-4.58-2.82-10.58-1.39-13.39 3.19l-29.1 47.31a2.255 2.255 0 0 1-3.9-.1l-11.3-20.3c-2.64-4.7-8.58-6.4-13.3-3.8l-.8.4c-4.7 2.64-6.4 8.58-3.8 13.3l21.8 39a9.981 9.981 0 0 0 8.3 5 9.84 9.84 0 0 0 9.1-4.6l40.39-65.6c2.77-4.57 1.3-10.51-3.26-13.28l-.04-.02" style="fill:#0ad2b7"/></svg>