<svg viewBox="0 0 490.3 86.763" xmlns="http://www.w3.org/2000/svg"><g fill="#212121"><path d="M191.71 29.737h-11.3l-5.9 19.512-6.84-19.512h-8.136l-6.84 19.44-5.9-19.44h-11.3l11.592 36.216h10.008l6.552-19.584 6.48 19.584h10.008z" data-name="Tracé 22507"/><path d="M209.71 38.017a7.221 7.221 0 0 1 7.272 5.688h-14.9a7.918 7.918 0 0 1 7.628-5.688zm18.648 9.792c-.216-11.808-8.424-19.152-18.648-19.152-10.512 0-19.152 7.776-19.152 19.152 0 11.448 8.64 19.152 19.08 19.152 8.28 0 14.832-3.672 17.928-11.3l-10.224-2.088c-1.944 3.528-5.04 4.176-7.7 4.176-3.888 0-6.84-2.664-7.776-6.984h26.5v-2.956z" data-name="Tracé 22508"/><path d="M252.05 57.169a8.972 8.972 0 0 1-8.856-9.36 9.016 9.016 0 0 1 8.856-9.36c5.04 0 8.712 3.816 8.712 9.36 0 5.616-3.672 9.36-8.712 9.36zm2.376-28.512a16.277 16.277 0 0 0-11.232 3.96V14.041h-11.52v51.84h11.52v-2.88a16.277 16.277 0 0 0 11.232 3.96c9.576 0 17.64-7.7 17.64-19.152 0-11.376-8.065-19.152-17.64-19.152z" data-name="Tracé 22509"/><path d="M272.64 55.881c.972 7.453 8.134 10.794 16.626 11.083 9.5.322 16.548-3.617 16.819-11.6.181-5.325-2.846-9.534-9.633-11.205l-8.432-2.015c-2.286-.582-2.683-1.6-2.649-2.611.044-1.295 1.1-2.772 4.2-2.667 3.526.12 5.616 2.208 5.9 4.451l10.574-1.736c-1.227-6.309-7.06-10.614-16.055-10.919-9.139-.31-15.707 4.293-15.958 11.705-.193 5.685 3.5 9.412 10.149 10.863l7.291 1.688c2.645.594 3.549 1.561 3.508 2.785-.054 1.583-1.753 2.822-4.775 2.72-3.094-.105-5.862-1.352-6.26-4.463z" data-name="Tracé 22510"/><path d="M321.89 65.881V29.737h-11.52v36.144zm0-40.625V14.112h-11.52v11.144z" data-name="Tracé 22511"/><path d="M374.95 28.657a15.58 15.58 0 0 0-12.816 6.12c-2.448-3.96-6.768-6.12-11.808-6.12a13.682 13.682 0 0 0-10.656 4.392v-3.312h-11.52v36.144h11.52V48.169c0-6.048 2.736-9.144 6.912-9.144 3.456 0 6.12 2.592 6.12 6.7v20.156h11.52V48.169c0-6.048 2.808-9.144 7.056-9.144 3.384 0 6.048 2.592 6.048 6.7v20.156h11.448V43.273c0-8.784-6.12-14.616-13.824-14.616z" data-name="Tracé 22512"/><path d="M414.34 57.169a8.972 8.972 0 0 1-8.856-9.36 9.016 9.016 0 0 1 8.856-9.36c5.04 0 8.712 3.816 8.712 9.36 0 5.616-3.672 9.36-8.712 9.36zm2.376-28.512a16.277 16.277 0 0 0-11.232 3.96v-2.88h-11.52v48.384h11.52v-15.12a16.277 16.277 0 0 0 11.232 3.96c9.576 0 17.64-7.7 17.64-19.152 0-11.376-8.064-19.152-17.64-19.152z" data-name="Tracé 22513"/><path data-name="Rectangle 10928" d="M437.67 14.041h11.52v51.84h-11.52z"/><path d="M471.65 38.017a7.221 7.221 0 0 1 7.272 5.688h-14.9a7.918 7.918 0 0 1 7.628-5.688zm18.651 9.792c-.216-11.808-8.424-19.152-18.648-19.152-10.512 0-19.152 7.776-19.152 19.152 0 11.448 8.64 19.152 19.08 19.152 8.28 0 14.832-3.672 17.928-11.3l-10.224-2.088c-1.944 3.528-5.04 4.176-7.7 4.176-3.888 0-6.84-2.664-7.776-6.984h26.5v-2.956z" data-name="Tracé 22514"/><path d="M51.324 85.439a10.2 10.2 0 0 1-13.9-3.9l-36.1-64.8a10.208 10.208 0 1 1 17.8-10l36.2 64.7a10.415 10.415 0 0 1-4 14" data-name="Tracé 22515"/></g><path d="m123.02 1.939-.7-.5a9.735 9.735 0 0 0-13.4 3.2l-29.1 47.3a2.253 2.253 0 0 1-3.9-.1l-11.3-20.3a9.82 9.82 0 0 0-13.3-3.8l-.8.4a9.82 9.82 0 0 0-3.8 13.3l21.8 39a9.983 9.983 0 0 0 8.3 5 9.83 9.83 0 0 0 9.1-4.6l40.4-65.6a9.668 9.668 0 0 0-3.3-13.3" fill="#0ad2b7" data-name="Tracé 22516"/></svg>